<svg width="220" height="92" viewBox="0 0 220 92" fill="none" xmlns="http://www.w3.org/2000/svg">
<path d="M0.182623 23H4.05462L6.10262 17.688H15.5746L17.6226 23H21.4946L12.7906 0.599998H8.88662L0.182623 23ZM10.8386 5.432L14.1986 14.168H7.47862L10.8386 5.432ZM27.2461 23H35.3101C39.5341 23 42.7981 20.312 42.7981 16.376C42.7981 12.344 39.6301 11.192 39.3101 11.128C39.6301 11.032 41.6461 9.72 41.6461 7C41.6461 2.296 38.1581 0.599998 34.5101 0.599998H27.2461V23ZM35.1821 19.352H31.0861V13.4H35.1821C37.2941 13.4 38.8941 14.264 38.8941 16.376C38.8941 18.488 37.2941 19.352 35.1821 19.352ZM31.0861 9.752V4.248H34.3821C36.2701 4.248 37.7421 5.048 37.7421 7C37.7421 8.952 36.5261 9.752 34.3821 9.752H31.0861ZM59.4011 19.8C54.9851 19.8 51.9451 16.12 51.9451 11.8C51.9451 7.48 54.9851 3.8 59.4011 3.8C63.0811 3.8 65.0971 6.264 65.0971 6.264L67.6891 3.736C67.6891 3.736 64.7771 0.216 59.4011 0.216C52.9371 0.216 48.0411 5.176 48.0411 11.8C48.0411 18.424 52.9371 23.384 59.4011 23.384C65.0651 23.384 68.0091 19.576 68.0091 19.576L65.4491 17.048C65.4491 17.048 63.3371 19.8 59.4011 19.8ZM81.3781 0.599998H74.1461V23H81.3781C87.9061 23 92.4501 18.264 92.4501 11.8C92.4501 5.336 87.9061 0.599998 81.3781 0.599998ZM81.4421 19.352H77.9861V4.248H81.4421C85.7941 4.248 88.5461 7.704 88.5461 11.8C88.5461 15.864 85.7941 19.352 81.4421 19.352ZM102.936 4.248H112.664V0.599998H99.0961V23H112.856V19.352H102.936V13.336H111.896V9.688H102.936V4.248ZM123.605 4.248H133.045V0.599998H119.765V23H123.605V13.368H132.405V9.72H123.605V4.248ZM150.336 19.8C145.824 19.8 142.464 16.12 142.464 11.8C142.464 7.48 145.664 3.8 150.176 3.8C153.984 3.8 155.84 6.136 155.84 6.136L158.464 3.576C158.464 3.576 155.68 0.216 150.176 0.216C143.616 0.216 138.56 5.176 138.56 11.8C138.56 18.424 143.776 23.384 150.336 23.384C155.776 23.384 158.624 20.568 158.624 20.568V10.392H149.76V13.976H154.848V18.712C154.848 18.712 153.536 19.8 150.336 19.8ZM179.26 9.72H169.692V0.599998H165.852V23H169.692V13.368H179.26V23H183.1V0.599998H179.26V9.72ZM191.469 23H195.309V0.599998H191.469V23ZM211.786 16.088C211.786 17.816 210.922 19.736 207.978 19.736C205.642 19.736 204.234 17.272 204.234 17.272L201.418 19.64C201.418 19.64 203.498 23.384 207.978 23.384C212.714 23.384 215.626 20.664 215.626 15.96V0.599998H211.786C211.786 0.599998 211.786 8.696 211.786 16.088ZM4.72987 34.6H0.889874V57H4.72987V46.888L13.5299 57H18.6179L8.76187 45.608L17.5299 34.6H12.7299L4.72987 44.648V34.6ZM206.582 34.216C200.054 34.216 195.254 39.176 195.254 45.8C195.254 52.424 200.054 57.384 206.582 57.384C209.174 57.384 211.478 56.616 213.334 55.24L216.63 58.088L219.094 55.272L215.926 52.552C217.174 50.664 217.91 48.36 217.91 45.8C217.91 39.176 213.11 34.216 206.582 34.216ZM206.55 49.32L210.422 52.712C209.334 53.352 208.022 53.736 206.582 53.736C202.102 53.736 199.158 50.12 199.158 45.8C199.158 41.48 202.102 37.864 206.582 37.864C211.062 37.864 214.006 41.48 214.006 45.8C214.006 47.336 213.654 48.776 212.982 49.992L209.014 46.536L206.55 49.32ZM5.17737 91H9.01737V82.552H10.7774L16.0894 91H20.5694L14.9694 82.296C18.1694 81.496 19.9614 78.936 19.9614 75.576C19.9614 71.48 16.9854 68.6 12.5374 68.6H5.17737V91ZM12.0574 78.904H9.01737V72.248H12.0574C14.5214 72.248 16.0574 73.368 16.0574 75.576C16.0574 77.784 14.5214 78.904 12.0574 78.904ZM38.2336 85.144C38.2336 86.968 36.2496 87.736 34.3296 87.736C30.9376 87.736 29.0176 84.376 29.0176 84.376L26.1376 86.808C26.1376 86.808 28.7296 91.384 34.3296 91.384C38.5536 91.384 42.1376 89.208 42.1376 85.144C42.1376 81.08 39.2896 79.544 35.8656 78.264C32.7936 77.112 31.0336 76.504 31.0336 74.552C31.0336 73.048 32.5376 71.864 34.4576 71.864C37.2416 71.864 39.0976 74.392 39.0976 74.392L41.7536 71.768C41.7536 71.768 39.1296 68.216 34.4576 68.216C29.9456 68.216 27.1296 71.384 27.1296 74.552C27.1296 78.712 30.8416 80.504 34.1376 81.656C36.7936 82.584 38.2336 83.256 38.2336 85.144ZM53.5209 91H57.3609V72.248H63.5369V68.6H47.3449V72.248H53.5209V91ZM82.9986 82.392C82.9986 85.592 81.3666 87.736 78.1986 87.736C74.9986 87.736 73.3986 85.592 73.3986 82.392C73.3986 75 73.3986 68.6 73.3986 68.6H69.5586V82.872C69.5586 87.8 72.9186 91.384 78.1986 91.384C83.4786 91.384 86.8386 87.8 86.8386 82.872V68.6H82.9986C82.9986 68.6 82.9986 75 82.9986 82.392ZM112.518 68.6H108.518L102.63 82.968L96.6779 68.6H92.4859L102.502 91.768L112.518 68.6ZM147.106 68.6H143.106L138.242 82.04L133.25 68.6H130.082L124.994 82.04L120.258 68.6H115.906L124.738 91.768L131.554 74.968L138.274 91.768L147.106 68.6ZM165.071 91H169.647L162.351 79.416L169.135 68.6H164.911L160.399 76.344L155.823 68.6H151.279L158.063 79.416L150.831 91H155.151L160.047 82.552L165.071 91ZM184.985 82.168L192.633 68.6H188.665L183.193 78.616L177.721 68.6H173.497L181.145 82.168V91H184.985V82.168ZM197.633 68.6V72.248H208.257L196.545 91H214.113V87.352H203.105L214.753 68.6H197.633Z" fill="white"/>
<path d="M24.1836 57H37.5596V53.352H28.0236V34.6H24.1836V57ZM47.2236 38.248H56.9516V34.6H43.3836V57H57.1436V53.352H47.2236V47.336H56.1836V43.688H47.2236V38.248ZM68.3084 57H72.1484V38.248H78.3244V34.6H62.1324V38.248H68.3084V57ZM88.6021 57H92.4421V38.248H98.6181V34.6H82.4261V38.248H88.6021V57ZM108.48 38.248H118.208V34.6H104.64V57H118.4V53.352H108.48V47.336H117.44V43.688H108.48V38.248ZM125.309 57H129.149V48.552H130.909L136.221 57H140.701L135.101 48.296C138.301 47.496 140.093 44.936 140.093 41.576C140.093 37.48 137.117 34.6 132.669 34.6H125.309V57ZM132.189 44.904H129.149V38.248H132.189C134.653 38.248 136.189 39.368 136.189 41.576C136.189 43.784 134.653 44.904 132.189 44.904ZM157.213 34.216C150.685 34.216 145.885 39.176 145.885 45.8C145.885 52.424 150.685 57.384 157.213 57.384C163.741 57.384 168.541 52.424 168.541 45.8C168.541 39.176 163.741 34.216 157.213 34.216ZM157.213 53.736C152.701 53.736 149.789 50.12 149.789 45.8C149.789 41.48 152.701 37.864 157.213 37.864C161.725 37.864 164.637 41.48 164.637 45.8C164.637 50.12 161.725 53.736 157.213 53.736ZM182.345 45.288H179.049V38.248H182.345C184.969 38.248 186.345 39.656 186.345 41.768C186.345 43.88 184.969 45.288 182.345 45.288ZM175.209 57H179.049V48.936H182.825C187.273 48.936 190.249 45.864 190.249 41.768C190.249 37.672 187.273 34.6 182.825 34.6H175.209V57Z" fill="#1E4BB4"/>
</svg>
